<mxfile host="app.diagrams.net" modified="2020-10-25T17:50:43.608Z" agent="5.0 (Windows NT 10.0; Win64; x64) AppleWebKit/537.36 (KHTML, like Gecko) Chrome/86.0.4240.111 Safari/537.36" etag="v5S5lg8M171nxUuum8Ze" version="13.8.2" type="github">
  <diagram id="51uBncpZeKGi5nlefZB6" name="Activity_Diagram_Manage_Accounts">
    <mxGraphModel dx="2942" dy="1154" grid="1" gridSize="10" guides="1" tooltips="1" connect="1" arrows="1" fold="1" page="1" pageScale="1" pageWidth="827" pageHeight="1169" math="0" shadow="0">
      <root>
        <mxCell id="MIjQvJClVpNPJ3KCYoKW-0" />
        <mxCell id="MIjQvJClVpNPJ3KCYoKW-1" parent="MIjQvJClVpNPJ3KCYoKW-0" />
        <mxCell id="uPn5avV3h4MO-AuFN-KD-0" value="Manage Accounts and Rights" style="ellipse;whiteSpace=wrap;html=1;" parent="MIjQvJClVpNPJ3KCYoKW-1" vertex="1">
          <mxGeometry x="220" y="10" width="120" height="80" as="geometry" />
        </mxCell>
        <mxCell id="uPn5avV3h4MO-AuFN-KD-1" value="add account" style="ellipse;whiteSpace=wrap;html=1;" parent="MIjQvJClVpNPJ3KCYoKW-1" vertex="1">
          <mxGeometry x="158" y="250" width="120" height="80" as="geometry" />
        </mxCell>
        <mxCell id="uPn5avV3h4MO-AuFN-KD-2" value="add rights" style="ellipse;whiteSpace=wrap;html=1;" parent="MIjQvJClVpNPJ3KCYoKW-1" vertex="1">
          <mxGeometry x="282" y="250" width="120" height="80" as="geometry" />
        </mxCell>
        <mxCell id="uPn5avV3h4MO-AuFN-KD-3" value="delete account" style="ellipse;whiteSpace=wrap;html=1;" parent="MIjQvJClVpNPJ3KCYoKW-1" vertex="1">
          <mxGeometry x="38" y="250" width="120" height="80" as="geometry" />
        </mxCell>
        <mxCell id="uPn5avV3h4MO-AuFN-KD-4" value="save configuration" style="ellipse;whiteSpace=wrap;html=1;" parent="MIjQvJClVpNPJ3KCYoKW-1" vertex="1">
          <mxGeometry x="220" y="420" width="120" height="80" as="geometry" />
        </mxCell>
        <mxCell id="uPn5avV3h4MO-AuFN-KD-5" value="remove rights" style="ellipse;whiteSpace=wrap;html=1;" parent="MIjQvJClVpNPJ3KCYoKW-1" vertex="1">
          <mxGeometry x="402" y="250" width="120" height="80" as="geometry" />
        </mxCell>
        <mxCell id="uPn5avV3h4MO-AuFN-KD-6" value="show error message" style="ellipse;whiteSpace=wrap;html=1;" parent="MIjQvJClVpNPJ3KCYoKW-1" vertex="1">
          <mxGeometry x="562" y="250" width="120" height="80" as="geometry" />
        </mxCell>
        <mxCell id="uPn5avV3h4MO-AuFN-KD-7" value="User has needed (write) rights?" style="ellipse;whiteSpace=wrap;html=1;" parent="MIjQvJClVpNPJ3KCYoKW-1" vertex="1">
          <mxGeometry x="220" y="110" width="120" height="80" as="geometry" />
        </mxCell>
        <mxCell id="uPn5avV3h4MO-AuFN-KD-42" value="" style="endArrow=classic;html=1;entryX=0.5;entryY=0;entryDx=0;entryDy=0;" parent="MIjQvJClVpNPJ3KCYoKW-1" target="uPn5avV3h4MO-AuFN-KD-5" edge="1">
          <mxGeometry width="50" height="50" relative="1" as="geometry">
            <mxPoint x="280" y="230" as="sourcePoint" />
            <mxPoint x="410" y="310" as="targetPoint" />
          </mxGeometry>
        </mxCell>
        <mxCell id="uPn5avV3h4MO-AuFN-KD-48" value="" style="endArrow=classic;html=1;entryX=0.5;entryY=0;entryDx=0;entryDy=0;" parent="MIjQvJClVpNPJ3KCYoKW-1" target="uPn5avV3h4MO-AuFN-KD-2" edge="1">
          <mxGeometry width="50" height="50" relative="1" as="geometry">
            <mxPoint x="280" y="230" as="sourcePoint" />
            <mxPoint x="410" y="310" as="targetPoint" />
          </mxGeometry>
        </mxCell>
        <mxCell id="uPn5avV3h4MO-AuFN-KD-54" value="" style="endArrow=classic;html=1;entryX=0.5;entryY=0;entryDx=0;entryDy=0;" parent="MIjQvJClVpNPJ3KCYoKW-1" target="uPn5avV3h4MO-AuFN-KD-1" edge="1">
          <mxGeometry width="50" height="50" relative="1" as="geometry">
            <mxPoint x="280" y="230" as="sourcePoint" />
            <mxPoint x="410" y="310" as="targetPoint" />
          </mxGeometry>
        </mxCell>
        <mxCell id="uPn5avV3h4MO-AuFN-KD-56" value="" style="endArrow=classic;html=1;entryX=0.5;entryY=0;entryDx=0;entryDy=0;" parent="MIjQvJClVpNPJ3KCYoKW-1" target="uPn5avV3h4MO-AuFN-KD-3" edge="1">
          <mxGeometry width="50" height="50" relative="1" as="geometry">
            <mxPoint x="280" y="230" as="sourcePoint" />
            <mxPoint x="430" y="329.9999999999999" as="targetPoint" />
          </mxGeometry>
        </mxCell>
        <mxCell id="uPn5avV3h4MO-AuFN-KD-57" value="" style="endArrow=classic;html=1;exitX=0.5;exitY=1;exitDx=0;exitDy=0;entryX=0.5;entryY=0;entryDx=0;entryDy=0;" parent="MIjQvJClVpNPJ3KCYoKW-1" source="uPn5avV3h4MO-AuFN-KD-3" target="uPn5avV3h4MO-AuFN-KD-4" edge="1">
          <mxGeometry width="50" height="50" relative="1" as="geometry">
            <mxPoint x="390" y="389.9999999999999" as="sourcePoint" />
            <mxPoint x="440" y="339.9999999999999" as="targetPoint" />
          </mxGeometry>
        </mxCell>
        <mxCell id="uPn5avV3h4MO-AuFN-KD-58" value="" style="endArrow=classic;html=1;exitX=0.5;exitY=1;exitDx=0;exitDy=0;entryX=0.5;entryY=0;entryDx=0;entryDy=0;" parent="MIjQvJClVpNPJ3KCYoKW-1" source="uPn5avV3h4MO-AuFN-KD-1" target="uPn5avV3h4MO-AuFN-KD-4" edge="1">
          <mxGeometry width="50" height="50" relative="1" as="geometry">
            <mxPoint x="400" y="399.9999999999999" as="sourcePoint" />
            <mxPoint x="450" y="349.9999999999999" as="targetPoint" />
          </mxGeometry>
        </mxCell>
        <mxCell id="uPn5avV3h4MO-AuFN-KD-59" value="" style="endArrow=classic;html=1;exitX=0.5;exitY=1;exitDx=0;exitDy=0;entryX=0.5;entryY=0;entryDx=0;entryDy=0;" parent="MIjQvJClVpNPJ3KCYoKW-1" source="uPn5avV3h4MO-AuFN-KD-2" target="uPn5avV3h4MO-AuFN-KD-4" edge="1">
          <mxGeometry width="50" height="50" relative="1" as="geometry">
            <mxPoint x="410" y="409.9999999999999" as="sourcePoint" />
            <mxPoint x="460" y="359.9999999999999" as="targetPoint" />
          </mxGeometry>
        </mxCell>
        <mxCell id="uPn5avV3h4MO-AuFN-KD-60" value="" style="endArrow=classic;html=1;exitX=0.5;exitY=1;exitDx=0;exitDy=0;entryX=0.5;entryY=0;entryDx=0;entryDy=0;" parent="MIjQvJClVpNPJ3KCYoKW-1" source="uPn5avV3h4MO-AuFN-KD-5" target="uPn5avV3h4MO-AuFN-KD-4" edge="1">
          <mxGeometry width="50" height="50" relative="1" as="geometry">
            <mxPoint x="420" y="419.9999999999999" as="sourcePoint" />
            <mxPoint x="470" y="369.9999999999999" as="targetPoint" />
          </mxGeometry>
        </mxCell>
        <object label="" id="uPn5avV3h4MO-AuFN-KD-61">
          <mxCell style="endArrow=none;html=1;exitX=0.5;exitY=1;exitDx=0;exitDy=0;" parent="MIjQvJClVpNPJ3KCYoKW-1" source="uPn5avV3h4MO-AuFN-KD-7" edge="1">
            <mxGeometry width="50" height="50" relative="1" as="geometry">
              <mxPoint x="360" y="360" as="sourcePoint" />
              <mxPoint x="280" y="230" as="targetPoint" />
            </mxGeometry>
          </mxCell>
        </object>
        <mxCell id="uPn5avV3h4MO-AuFN-KD-62" value="Yes" style="text;html=1;strokeColor=none;fillColor=none;align=center;verticalAlign=middle;whiteSpace=wrap;rounded=0;" parent="MIjQvJClVpNPJ3KCYoKW-1" vertex="1">
          <mxGeometry x="282" y="200" width="40" height="20" as="geometry" />
        </mxCell>
        <mxCell id="uPn5avV3h4MO-AuFN-KD-65" value="View Accounts" style="ellipse;whiteSpace=wrap;html=1;" parent="MIjQvJClVpNPJ3KCYoKW-1" vertex="1">
          <mxGeometry x="360" y="545" width="120" height="80" as="geometry" />
        </mxCell>
        <mxCell id="uPn5avV3h4MO-AuFN-KD-66" value="No" style="text;html=1;strokeColor=none;fillColor=none;align=center;verticalAlign=middle;whiteSpace=wrap;rounded=0;" parent="MIjQvJClVpNPJ3KCYoKW-1" vertex="1">
          <mxGeometry x="620" y="210" width="40" height="20" as="geometry" />
        </mxCell>
        <object label="" id="uPn5avV3h4MO-AuFN-KD-67">
          <mxCell style="endArrow=none;html=1;exitX=0.5;exitY=1;exitDx=0;exitDy=0;" parent="MIjQvJClVpNPJ3KCYoKW-1" source="uPn5avV3h4MO-AuFN-KD-7" edge="1">
            <mxGeometry width="50" height="50" relative="1" as="geometry">
              <mxPoint x="290" y="200" as="sourcePoint" />
              <mxPoint x="620" y="190" as="targetPoint" />
            </mxGeometry>
          </mxCell>
        </object>
        <object label="" id="uPn5avV3h4MO-AuFN-KD-68">
          <mxCell style="endArrow=none;html=1;entryX=0.5;entryY=0;entryDx=0;entryDy=0;" parent="MIjQvJClVpNPJ3KCYoKW-1" target="uPn5avV3h4MO-AuFN-KD-6" edge="1">
            <mxGeometry width="50" height="50" relative="1" as="geometry">
              <mxPoint x="622" y="190" as="sourcePoint" />
              <mxPoint x="300" y="249.9999999999999" as="targetPoint" />
            </mxGeometry>
          </mxCell>
        </object>
        <mxCell id="iclMmv0nS1doL0X6kXzv-0" value="" style="endArrow=classic;html=1;exitX=0.5;exitY=1;exitDx=0;exitDy=0;entryX=0.5;entryY=0;entryDx=0;entryDy=0;" parent="MIjQvJClVpNPJ3KCYoKW-1" source="uPn5avV3h4MO-AuFN-KD-4" target="uPn5avV3h4MO-AuFN-KD-65" edge="1">
          <mxGeometry width="50" height="50" relative="1" as="geometry">
            <mxPoint x="360" y="540" as="sourcePoint" />
            <mxPoint x="410" y="490" as="targetPoint" />
          </mxGeometry>
        </mxCell>
        <mxCell id="iclMmv0nS1doL0X6kXzv-2" value="" style="endArrow=classic;html=1;exitX=0.5;exitY=1;exitDx=0;exitDy=0;entryX=0.5;entryY=0;entryDx=0;entryDy=0;" parent="MIjQvJClVpNPJ3KCYoKW-1" source="uPn5avV3h4MO-AuFN-KD-6" target="uPn5avV3h4MO-AuFN-KD-65" edge="1">
          <mxGeometry width="50" height="50" relative="1" as="geometry">
            <mxPoint x="360" y="540" as="sourcePoint" />
            <mxPoint x="410" y="490" as="targetPoint" />
          </mxGeometry>
        </mxCell>
        <mxCell id="iclMmv0nS1doL0X6kXzv-3" value="" style="endArrow=classic;html=1;exitX=0.5;exitY=1;exitDx=0;exitDy=0;entryX=0.5;entryY=0;entryDx=0;entryDy=0;" parent="MIjQvJClVpNPJ3KCYoKW-1" source="uPn5avV3h4MO-AuFN-KD-0" target="uPn5avV3h4MO-AuFN-KD-7" edge="1">
          <mxGeometry width="50" height="50" relative="1" as="geometry">
            <mxPoint x="360" y="290" as="sourcePoint" />
            <mxPoint x="410" y="240" as="targetPoint" />
          </mxGeometry>
        </mxCell>
        <mxCell id="iclMmv0nS1doL0X6kXzv-4" value="preassumption: user has entered the account dialog" style="text;html=1;strokeColor=none;fillColor=none;align=center;verticalAlign=middle;whiteSpace=wrap;rounded=0;" parent="MIjQvJClVpNPJ3KCYoKW-1" vertex="1">
          <mxGeometry x="30" y="40" width="130" height="20" as="geometry" />
        </mxCell>
      </root>
    </mxGraphModel>
  </diagram>
</mxfile>
